<svg width="403" height="500" viewBox="0 0 403 500" fill="none" xmlns="http://www.w3.org/2000/svg">
<path fill-rule="evenodd" clip-rule="evenodd" d="M194.06 47.8584C206.243 54.8922 221.504 50.9509 226.99 38.5841C240.411 8.32737 199.988 -7.61817 178.498 3.59386C182.112 6.96001 182.421 13.3654 182.763 20.4375C183.249 30.5104 183.801 41.9357 194.06 47.8584ZM0 312.076C0 422.782 86.0451 499.999 192.187 499.999C389.28 499.999 438.425 230.365 378.934 185.102C378.934 213.553 367.294 234.885 367.294 234.885C367.294 234.885 351.775 109.436 237.965 21.4959C243.692 56.6282 206.254 76.6783 159.472 101.732C90.0299 138.922 0 187.138 0 312.076ZM297.11 310.99C297.11 331.24 280.694 347.657 260.444 347.657C240.193 347.657 223.777 331.24 223.777 310.99C223.777 290.74 240.193 274.323 260.444 274.323C280.694 274.323 297.11 290.74 297.11 310.99ZM117.108 347.657C137.358 347.657 153.774 331.24 153.774 310.99C153.774 290.74 137.358 274.323 117.108 274.323C96.8574 274.323 80.4412 290.74 80.4412 310.99C80.4412 331.24 96.8574 347.657 117.108 347.657Z" fill="url(#paint0_linear_108_31)"/>
<path fill-rule="evenodd" clip-rule="evenodd" d="M192.189 499.209C135.394 499.209 50.4382 457.824 50.4382 356.948C50.4382 217.656 118.954 165.526 173.373 124.121C212.933 94.0215 245.044 69.59 237.967 21.4613C351.777 109.263 367.296 234.514 367.296 234.514C367.296 234.514 378.936 213.216 378.936 184.809C438.427 230.001 389.282 499.209 192.189 499.209ZM297.11 310.99C297.11 331.24 280.694 347.657 260.444 347.657C240.193 347.657 223.777 331.24 223.777 310.99C223.777 290.74 240.193 274.323 260.444 274.323C280.694 274.323 297.11 290.74 297.11 310.99ZM117.108 347.657C137.358 347.657 153.774 331.24 153.774 310.99C153.774 290.74 137.358 274.323 117.108 274.323C96.8574 274.323 80.4412 290.74 80.4412 310.99C80.4412 331.24 96.8574 347.657 117.108 347.657Z" fill="url(#paint1_linear_108_31)"/>
<path fill-rule="evenodd" clip-rule="evenodd" d="M195.533 492.745C258.52 492.745 352.737 458.463 352.737 374.901C352.737 260.73 300.022 215.552 258.506 179.973C227.565 153.455 202.844 132.269 210.806 91.8247C84.5886 164.556 52.1055 279.948 52.1055 279.948C52.1055 279.948 39.1969 262.305 39.1969 238.775C-26.7802 276.21 -23.0478 492.745 195.533 492.745ZM297.11 310.99C297.11 331.24 280.694 347.657 260.444 347.657C240.193 347.657 223.777 331.24 223.777 310.99C223.777 290.74 240.193 274.323 260.444 274.323C280.694 274.323 297.11 290.74 297.11 310.99ZM117.108 347.657C137.358 347.657 153.774 331.24 153.774 310.99C153.774 290.74 137.358 274.323 117.108 274.323C96.8574 274.323 80.4412 290.74 80.4412 310.99C80.4412 331.24 96.8574 347.657 117.108 347.657Z" fill="url(#paint2_linear_108_31)"/>
<path fill-rule="evenodd" clip-rule="evenodd" d="M183.172 500C111.47 500 60.4431 458.494 60.4431 377.024C60.4431 350.279 68.14 329.356 80.4577 312.103C81.046 331.838 97.2296 347.657 117.108 347.657C137.358 347.657 153.774 331.24 153.774 310.99C153.774 291.845 139.101 276.127 120.387 274.468C133.998 264.975 148.745 256.528 163.295 248.194C211.992 220.302 258.474 193.679 252.709 133.334C446.85 231.252 373.934 500 183.172 500ZM297.11 310.99C297.11 331.24 280.694 347.657 260.444 347.657C240.193 347.657 223.777 331.24 223.777 310.99C223.777 290.74 240.193 274.323 260.444 274.323C280.694 274.323 297.11 290.74 297.11 310.99Z" fill="url(#paint3_linear_108_31)"/>
<path fill-rule="evenodd" clip-rule="evenodd" d="M132.109 438.333C132.109 482.304 159.075 499.21 200.687 499.21C389.951 499.21 437.144 230.001 380.016 184.809C404.611 217.867 362.434 307.682 286.245 337.043C279.62 343.604 270.505 347.657 260.444 347.657C257.857 347.657 255.334 347.389 252.899 346.879C167.047 370.382 132.109 384.02 132.109 438.333Z" fill="url(#paint4_linear_108_31)"/>
<defs>
<linearGradient id="paint0_linear_108_31" x1="438.069" y1="-165.535" x2="285.684" y2="518.788" gradientUnits="userSpaceOnUse">
<stop stop-color="#FFCC15"/>
<stop offset="1" stop-color="#D60000"/>
</linearGradient>
<linearGradient id="paint1_linear_108_31" x1="433.629" y1="-136.707" x2="276.019" y2="511.248" gradientUnits="userSpaceOnUse">
<stop stop-color="#FFCC15"/>
<stop offset="1" stop-color="#D60000"/>
</linearGradient>
<linearGradient id="paint2_linear_108_31" x1="-12.3837" y1="128.198" x2="226.081" y2="534.593" gradientUnits="userSpaceOnUse">
<stop stop-color="#FFC700"/>
<stop offset="1" stop-color="#C40000"/>
</linearGradient>
<linearGradient id="paint3_linear_108_31" x1="379.467" y1="166.6" x2="156.646" y2="529.39" gradientUnits="userSpaceOnUse">
<stop stop-color="#FFC700"/>
<stop offset="1" stop-color="#C40000"/>
</linearGradient>
<linearGradient id="paint4_linear_108_31" x1="413.663" y1="213.333" x2="225.141" y2="529.261" gradientUnits="userSpaceOnUse">
<stop stop-color="#FFE600"/>
<stop offset="1" stop-color="#B30040"/>
</linearGradient>
</defs>
</svg>
